<mxfile host="app.diagrams.net" modified="2023-12-25T12:54:50.696Z" agent="Mozilla/5.0 (X11; Linux x86_64; rv:121.0) Gecko/20100101 Firefox/121.0" version="22.1.11" etag="68yN4nTq1FGTqXnlMcTG" type="github">
  <diagram name="Page-1" id="-5RO7jUoHfyZzK78an-b">
    <mxGraphModel>
      <root>
        <mxCell id="0" />
        <mxCell id="1" parent="0" />
      </root>
    </mxGraphModel>
  </diagram>
</mxfile>
